<svg xmlns="http://www.w3.org/2000/svg" viewBox="0 0 469.4 418.1">
    <path fill="#afa"
          d="M235 0c-54.5 0-99 21.8-99 48.4 0 26.6 44.5 48.3 99 48.3 54.6 0 99-21.7 99-48.3C334 21.8 289.6.1 235 .1zm0 13.3c40 0 71.8 15.6 71.8 35.1S275.1 84 235 84c-40 0-72.7-16-72.7-35.5s32.6-35 72.7-35zM60.8 28.2C47.6 28 28.6 42.8 18.5 65.9c-43.2 99.1-9.6 359.7 88 352-22-50.5-43.9-108-56.8-168.8C76 321.6 122 384.7 167.5 369.3c-32-40.2-66-87.3-90-140.4 35 59.2 85.4 105.9 123 85.5a682.2 682.2 0 0 1-88.8-93.2c39.7 37.4 87.1 61.3 112.3 37.7-47.7-21-94.4-53.6-125-89.7-16.4-19.2-28.3-39.4-32.8-60a75 75 0 0 1-.5-31V78l.1-.2c4-21.2 15-35.4 4.5-46a13 13 0 0 0-9.5-3.6zm347.7 0a13 13 0 0 0-9.5 3.7c-8 8.2-3.4 18.5 1 32.7a72.2 72.2 0 0 1 4 44.6c-4.6 20.6-16.5 40.8-32.8 60-30.8 36.2-77.7 68.9-125.6 90 25.3 23.2 72.5-.8 112-38a681.8 681.8 0 0 1-88.8 93.2c37.7 20.4 88-26.3 123-85.5-24 53.1-58 100.2-90 140.4 45.5 15.4 91.5-47.7 117.8-120.3A890.4 890.4 0 0 1 363 417.7c97.4 7.8 131.1-252.7 87.8-352-10-23-29-37.7-42.3-37.6zm-22.2 74C286 170.4 185.5 184.6 85 107.6a131 131 0 0 0 28.1 49.5c29 34 75.5 66.4 122 86.3 46.4-20 93-52.3 122-86.3a126.4 126.4 0 0 0 29.2-55z"/>
</svg>
