<svg xmlns="http://www.w3.org/2000/svg" viewBox="0 0 32 32">
    <path fill="#f90" d="M8.5 18.3 1.8 25c3.4 11 14.5 2.4 8.5-3.5-1.3-1.2-1.8-2.4-1.8-3.3zm-.2 3 1.4 1.4c-1.8.2-5 2.7-5.7 4.5l-.8-1.6 5-4.3zM4.6 28c1.9-.2 5-2.9 5.7-4.5 2.2 3.9-2.6 7.7-5.7 4.5zm7.7-9-2.2 1.7 2 3.3 3.9-2.5 4 2.5 1.9-3.3-2.3-1.7C27 13.5 32.4 7.3 30.3 1a45.6 45.6 0 0 1-14.3 15C9.8 11.3 4 6.4 1.7 1.1-.5 7.3 4.9 13.5 12.3 19zm9.4 2.6c-6 6 5 14.5 8.5 3.5l-6.8-6.8c.1 1-.5 2.1-1.7 3.3zm0 1.9c.7 1.6 3.8 4.3 5.7 4.5-3.1 3.2-8-.6-5.7-4.5zm7 2.1a8 8 0 0 1-.7 1.6c-.7-1.8-4-4.3-5.8-4.5.4-.5.9-1 1.5-1.4l5 4.3z"/>
</svg>
