<svg xmlns="http://www.w3.org/2000/svg" viewBox="0 0 32 32">
    <path fill="#4f4"
          d="M30 12.7a14.5 14.5 0 0 0-14.3-11A17 17 0 0 0 1.2 8c1.6-1.4 3.5-2.4 5.6-3-3.9 3.4-6 8.7-5 14 0-1.7.5-3.4 1.2-5 .1 3.3 1.2 6.4 3.3 9C3.9 18.3 4.9 10.9 8.9 8h-.1l2.3-.8a12.5 12.5 0 0 1 15.3 9.1 13.2 13.2 0 0 1-2.3 11.5c-3.4-.6-3.3-4 .9-7.2l-3.1-2.3-.4 1-12-8.5c-1.2-.6-2 .7-1 1.3l12.2 8.7c-2 3-4.9 2.4-6.1-1-3.4 3-1.9 8 1.4 10.3 3 2 7.3 1.6 9.3-2 4.2-3.6 6.3-9.6 4.8-15.4zm-14-11h.1zm.5 0zm.4 0zm.6 4.4zm-.4-.1-.2-.1h.2zm-.3-.2h-.2.2zm-.3-.1-.3-.1h.3zm-.3-.2zm-.3 0-.3-.2.3.1zM14.5 5zm1 .3h-.2.2zm-.3-.1H15h.3zm-.3-.1zm-7.4-.2zm3.3-.4h-.3.3zm-.3 0h-.3.3zm-.4 0zm-.6.1zm-.4 0zm-.3 0zm-.7.2zm-.3 0zM3 12zm0 1v-.1zm0-.3zm0-.4v-.2.2zM9 8zm1.7-3.4zm3.4.4H14h.2zM14 5zm-.4-.1zm-.3 0zm-.3-.1zm-.3 0-.4-.1h.4zm-.4-.1h-.3.3zm-.4 0h-.2.2zM18.2 2zm.4 0h.1zm.4.2h.1zm.4 0 .1.1zm1 .4zm.3.1h.1zm.4.2h.1-.1zm.4.1h.1-.1zm.4.2h.1-.1zM23 29.6zm-.2-.5.2-.2-.2.2zm-.6.5-.1.2.1-.2zm1.3-1.2zm-.2.2-.1.2.1-.2zm-.1.2-.2.1.2-.1zm-.4.3-.2.2.2-.2zm-.2.2-.2.2.2-.2zm-.2.2-.1.1.1-.1zm-.8.6-.1.1h.1zm.4-.3-.1.1h.1zm-.2.2h-.1.1zm-.1-8.4zm-.5 8.8-.2.2.3-.2-.3.2.2-.2zm.2-.1zm1.4-.5h-.2.2zm-.3.1h-.2.2zm-.3.1-.2.1h.2zm-.3.2h-.2.2zm-.3.1-.2.1h.2zm1.6-.8zm.8-.5zm1-.7zm-.8.6zm.2-.2zm.3-.2z"/>
</svg>